<!-- @formatter:off -->
<svg xmlns="http://www.w3.org/2000/svg" >
    <defs>
        <svg id="instagram" xmlns="http://www.w3.org/2000/svg" width="1000" height="1000" viewBox="0 0 264.5833 264.5833"><defs><radialGradient id="f" cx="158.429" cy="578.088" r="52.3515" xlink:href="#a" gradientUnits="userSpaceOnUse" gradientTransform="matrix(0 -4.03418 4.28018 0 -2332.2273 942.2356)" fx="158.429" fy="578.088"/><radialGradient inkscape:collect="always" xlink:href="#b" id="g" gradientUnits="userSpaceOnUse" gradientTransform="matrix(.67441 -1.16203 1.51283 .87801 -814.3657 -47.8354)" cx="172.6149" cy="600.6924" fx="172.6149" fy="600.6924" r="65"/><radialGradient inkscape:collect="always" xlink:href="#c" id="h" cx="144.012" cy="51.3367" fx="144.012" fy="51.3367" r="67.081" gradientTransform="matrix(-2.3989 .67549 -.23008 -.81732 464.9957 -26.4035)" gradientUnits="userSpaceOnUse"/><radialGradient inkscape:collect="always" xlink:href="#d" id="e" gradientUnits="userSpaceOnUse" gradientTransform="matrix(-3.10797 .87652 -.6315 -2.23914 1345.6503 1374.1983)" cx="199.7884" cy="628.4379" fx="199.7884" fy="628.4379" r="52.3515"/><linearGradient inkscape:collect="always" id="d"><stop offset="0" stop-color="#ff005f"/><stop offset="1" stop-color="#fc01d8"/></linearGradient><linearGradient id="c"><stop offset="0" stop-color="#780cff"/><stop stop-color="#820bff" offset="1" stop-opacity="0"/></linearGradient><linearGradient inkscape:collect="always" id="b"><stop offset="0" stop-color="#fc0"/><stop offset="1" stop-color="#fc0" stop-opacity="0"/></linearGradient><linearGradient id="a"><stop offset="0" stop-color="#fc0"/><stop offset=".1242" stop-color="#fc0"/><stop offset=".5672" stop-color="#fe4a05"/><stop offset=".6942" stop-color="#ff0f3f"/><stop offset="1" stop-color="#fe0657" stop-opacity="0"/></linearGradient></defs><sodipodi:namedview pagecolor="#ffffff" bordercolor="#666666" borderopacity="1" inkscape:pageopacity="0" inkscape:pageshadow="2" inkscape:zoom=".515" inkscape:cx="500" inkscape:cy="500" inkscape:document-units="mm" inkscape:current-layer="layer1" inkscape:document-rotation="0" showgrid="false" inkscape:window-width="1366" inkscape:window-height="705" inkscape:window-x="-8" inkscape:window-y="-8" inkscape:window-maximized="1"/><g inkscape:label="Layer 1" inkscape:groupmode="layer"><path d="M204.1503 18.1429c-55.2305 0-71.3834.057-74.5232.3175-11.3342.9424-18.387 2.7275-26.0708 6.554-5.9214 2.9413-10.5915 6.3506-15.2005 11.1298-8.3938 8.7157-13.481 19.4383-15.3226 32.1842-.8953 6.1877-1.1558 7.4496-1.2087 39.0558-.0203 10.5354 0 24.4007 0 42.9984 0 55.2008.061 71.3418.3256 74.4764.9157 11.032 2.6453 17.9728 6.3081 25.565 7 14.5329 20.369 25.4428 36.119 29.5137 5.4535 1.4044 11.4767 2.1779 19.2092 2.5442 3.2762.1425 36.6684.2443 70.081.2443 33.4127 0 66.8253-.0407 70.02-.2035 8.9535-.4214 14.1526-1.1195 19.9011-2.6054 15.8517-4.0912 28.9767-14.8383 36.119-29.5748 3.5916-7.409 5.4128-14.6144 6.237-25.0704.179-2.2796.2543-38.6263.2543-74.924 0-36.304-.0814-72.5835-.2605-74.8632-.8343-10.6249-2.6555-17.7692-6.363-25.3207-3.0421-6.1816-6.42-10.798-11.324-15.518-8.752-8.3616-19.4555-13.4502-32.2101-15.2902-6.18-.8936-7.411-1.1582-39.033-1.2131z" inkscape:connector-curvature="0" fill="url(#e)" transform="translate(-71.8155 -18.1429)"/><path d="M204.1503 18.1429c-55.2305 0-71.3834.057-74.5232.3175-11.3342.9424-18.387 2.7275-26.0708 6.554-5.9214 2.9413-10.5915 6.3506-15.2005 11.1298-8.3938 8.7157-13.481 19.4383-15.3226 32.1842-.8953 6.1877-1.1558 7.4496-1.2087 39.0558-.0203 10.5354 0 24.4007 0 42.9984 0 55.2008.061 71.3418.3256 74.4764.9157 11.032 2.6453 17.9728 6.3081 25.565 7 14.5329 20.369 25.4428 36.119 29.5137 5.4535 1.4044 11.4767 2.1779 19.2092 2.5442 3.2762.1425 36.6684.2443 70.081.2443 33.4127 0 66.8253-.0407 70.02-.2035 8.9535-.4214 14.1526-1.1195 19.9011-2.6054 15.8517-4.0912 28.9767-14.8383 36.119-29.5748 3.5916-7.409 5.4128-14.6144 6.237-25.0704.179-2.2796.2543-38.6263.2543-74.924 0-36.304-.0814-72.5835-.2605-74.8632-.8343-10.6249-2.6555-17.7692-6.363-25.3207-3.0421-6.1816-6.42-10.798-11.324-15.518-8.752-8.3616-19.4555-13.4502-32.2101-15.2902-6.18-.8936-7.411-1.1582-39.033-1.2131z" inkscape:connector-curvature="0" fill="url(#f)" transform="translate(-71.8155 -18.1429)"/><path d="M204.1503 18.1429c-55.2305 0-71.3834.057-74.5232.3175-11.3342.9424-18.387 2.7275-26.0708 6.554-5.9214 2.9413-10.5915 6.3506-15.2005 11.1298-8.3938 8.7157-13.481 19.4383-15.3226 32.1842-.8953 6.1877-1.1558 7.4496-1.2087 39.0558-.0203 10.5354 0 24.4007 0 42.9984 0 55.2008.061 71.3418.3256 74.4764.9157 11.032 2.6453 17.9728 6.3081 25.565 7 14.5329 20.369 25.4428 36.119 29.5137 5.4535 1.4044 11.4767 2.1779 19.2092 2.5442 3.2762.1425 36.6684.2443 70.081.2443 33.4127 0 66.8253-.0407 70.02-.2035 8.9535-.4214 14.1526-1.1195 19.9011-2.6054 15.8517-4.0912 28.9767-14.8383 36.119-29.5748 3.5916-7.409 5.4128-14.6144 6.237-25.0704.179-2.2796.2543-38.6263.2543-74.924 0-36.304-.0814-72.5835-.2605-74.8632-.8343-10.6249-2.6555-17.7692-6.363-25.3207-3.0421-6.1816-6.42-10.798-11.324-15.518-8.752-8.3616-19.4555-13.4502-32.2101-15.2902-6.18-.8936-7.411-1.1582-39.033-1.2131z" inkscape:connector-curvature="0" fill="url(#g)" transform="translate(-71.8155 -18.1429)"/><path d="M204.1503 18.1429c-55.2305 0-71.3834.057-74.5232.3175-11.3342.9424-18.387 2.7275-26.0708 6.554-5.9214 2.9413-10.5915 6.3506-15.2005 11.1298-8.3938 8.7157-13.481 19.4383-15.3226 32.1842-.8953 6.1877-1.1558 7.4496-1.2087 39.0558-.0203 10.5354 0 24.4007 0 42.9984 0 55.2008.061 71.3418.3256 74.4764.9157 11.032 2.6453 17.9728 6.3081 25.565 7 14.5329 20.369 25.4428 36.119 29.5137 5.4535 1.4044 11.4767 2.1779 19.2092 2.5442 3.2762.1425 36.6684.2443 70.081.2443 33.4127 0 66.8253-.0407 70.02-.2035 8.9535-.4214 14.1526-1.1195 19.9011-2.6054 15.8517-4.0912 28.9767-14.8383 36.119-29.5748 3.5916-7.409 5.4128-14.6144 6.237-25.0704.179-2.2796.2543-38.6263.2543-74.924 0-36.304-.0814-72.5835-.2605-74.8632-.8343-10.6249-2.6555-17.7692-6.363-25.3207-3.0421-6.1816-6.42-10.798-11.324-15.518-8.752-8.3616-19.4555-13.4502-32.2101-15.2902-6.18-.8936-7.411-1.1582-39.033-1.2131z" inkscape:connector-curvature="0" fill="url(#h)" transform="translate(-71.8155 -18.1429)"/><path d="M132.3452 33.973c-26.7167 0-30.0696.1167-40.5629.5939-10.4727.4792-17.6212 2.136-23.8762 4.567-6.4701 2.5107-11.9586 5.8693-17.4265 11.3352-5.472 5.464-8.8332 10.9483-11.354 17.4116-2.4389 6.2524-4.099 13.3976-4.5703 23.8585-.4693 10.4854-.5923 13.8379-.5923 40.5348 0 26.697.1189 30.0371.5943 40.5225.4817 10.465 2.1397 17.6082 4.5703 23.8585 2.5147 6.4654 5.8758 11.9497 11.3458 17.4136 5.466 5.468 10.9544 8.8349 17.4204 11.3456 6.259 2.4309 13.4097 4.0877 23.8803 4.567 10.4933.477 13.8441.5938 40.5588.5938 26.7188 0 30.0615-.1167 40.5547-.5939 10.4728-.4792 17.6295-2.136 23.8885-4.567 6.4681-2.5106 11.9484-5.8775 17.4143-11.3455 5.472-5.4639 8.8332-10.9482 11.354-17.4115 2.4183-6.2524 4.0784-13.3976 4.5703-23.8585.4713-10.4854.5943-13.8277.5943-40.5246 0-26.697-.123-30.0473-.5943-40.5328-.4919-10.465-2.152-17.6081-4.5703-23.8584-2.5208-6.4654-5.882-11.9498-11.354-17.4137-5.4721-5.468-10.9442-8.8266-17.4204-11.3353-6.2714-2.4309-13.424-4.0877-23.8967-4.5669-10.4933-.4772-13.8339-.5939-40.5588-.5939zm-8.825 17.7147c2.6193-.0041 5.5418 0 8.825 0 26.2659 0 29.379.0942 39.7513.5652 9.5915.4383 14.7971 2.0397 18.2648 3.3852 4.5908 1.7817 7.8638 3.9116 11.3048 7.3521 3.4431 3.4406 5.5745 6.7173 7.3617 11.3046 1.3465 3.461 2.9512 8.6628 3.3877 18.2472.4714 10.3625.5739 13.4754.5739 39.7095 0 26.234-.1025 29.347-.5739 39.7095-.4386 9.5843-2.0412 14.7861-3.3877 18.2471-1.783 4.5874-3.9186 7.8539-7.3617 11.2923-3.443 3.4406-6.712 5.5704-11.3048 7.3521-3.4636 1.3517-8.6733 2.949-18.2648 3.3873-10.3702.471-13.4854.5734-39.7513.5734-26.2679 0-29.381-.1024-39.7513-.5734-9.5914-.4423-14.797-2.0438-18.2668-3.3893-4.5908-1.7817-7.87-3.9116-11.313-7.3521-3.4431-3.4405-5.5745-6.709-7.3617-11.2985-1.3465-3.461-2.9512-8.6628-3.3877-18.2471-.4714-10.3626-.5657-13.4754-.5657-39.7259 0-26.2504.0943-29.347.5657-39.7095.4386-9.5844 2.0412-14.7861 3.3877-18.2512 1.783-4.5874 3.9186-7.8641 7.3617-11.3046 3.443-3.4406 6.7222-5.5704 11.313-7.3562 3.4677-1.3517 8.6754-2.949 18.2668-3.3894 9.075-.4096 12.5919-.5324 30.9264-.553zm61.3363 16.322c-6.5173 0-11.805 5.2776-11.805 11.792 0 6.5125 5.2877 11.7962 11.805 11.7962 6.5172 0 11.8049-5.2837 11.8049-11.7962 0-6.5124-5.2877-11.796-11.805-11.796zm-52.5113 13.7826c-27.8993 0-50.5191 22.6031-50.5191 50.4817 0 27.8786 22.6198 50.4714 50.5191 50.4714s50.511-22.5928 50.511-50.4714c0-27.8786-22.6137-50.4817-50.513-50.4817zm0 17.7147c18.109 0 32.7914 14.6694 32.7914 32.767 0 18.0956-14.6824 32.767-32.7914 32.767-18.111 0-32.7913-14.6714-32.7913-32.767 0-18.0976 14.6803-32.767 32.7913-32.767z" inkscape:connector-curvature="0" fill="#fff"/></g></svg>
        <svg id="x" xmlns="http://www.w3.org/2000/svg"  viewBox="0 0 50 50" width="50px" height="50px"><path d="M 11 4 C 7.134 4 4 7.134 4 11 L 4 39 C 4 42.866 7.134 46 11 46 L 39 46 C 42.866 46 46 42.866 46 39 L 46 11 C 46 7.134 42.866 4 39 4 L 11 4 z M 13.085938 13 L 21.023438 13 L 26.660156 21.009766 L 33.5 13 L 36 13 L 27.789062 22.613281 L 37.914062 37 L 29.978516 37 L 23.4375 27.707031 L 15.5 37 L 13 37 L 22.308594 26.103516 L 13.085938 13 z M 16.914062 15 L 31.021484 35 L 34.085938 35 L 19.978516 15 L 16.914062 15 z"/></svg>
        <svg id="facebook" xmlns="http://www.w3.org/2000/svg"  viewBox="0 0 48 48" width="48px" height="48px"><path fill="#039be5" d="M24 5A19 19 0 1 0 24 43A19 19 0 1 0 24 5Z"/><path fill="#fff" d="M26.572,29.036h4.917l0.772-4.995h-5.69v-2.73c0-2.075,0.678-3.915,2.619-3.915h3.119v-4.359c-0.548-0.074-1.707-0.236-3.897-0.236c-4.573,0-7.254,2.415-7.254,7.917v3.323h-4.701v4.995h4.701v13.729C22.089,42.905,23.032,43,24,43c0.875,0,1.729-0.08,2.572-0.194V29.036z"/></svg></defs>
        <svg id="google_maps" height="67.24823mm" viewBox="0 0 67.24823 67.24823" width="67.24823mm" xmlns="http://www.w3.org/2000/svg"><g transform="matrix(.98012243 0 0 .98012243 -171.980263 -218.505437)"><rect fill="#34a668" height="60.099167" rx="5.238483" width="60.099167" x="176.03078" y="231.39877"/><path d="m206.47724 260.8998-28.98737 28.98738c.95208.99186 2.28981 1.61075 3.77961 1.61075h49.62178c1.69327 0 3.18961-.79908 4.146-2.03811z" fill="#5c88c5"/><path d="m226.74164 222.9879c-9.26523-.00003-16.77621 7.16992-16.77624 16.01453.007 2.76133.66273 5.47394 2.09238 7.87445.43042.70324.83091 1.40778 1.18959 2.10737.3336.50154.65067 1.00493.94982 1.50792.34373.47653.67371.95692.98857 1.43919 1.31001 1.76931 2.50056 3.50299 3.6375 5.16816.79248 1.27562 1.68289 2.63985 2.46548 3.99045 2.36368 4.09389 4.00715 8.09185 4.59972 13.91388.00053.004.00053.008.001.0124.18124.41155.51594.66553.8785.66663.40324-.001.76794-.31425.92966-.79841.60297-5.7563 2.23804-9.72915 4.58525-13.7945.78259-1.35061 1.673-2.71484 2.46548-3.99046 1.13695-1.66516 2.32749-3.39885 3.63751-5.16816.31485-.48227.64483-.96265.98857-1.43919.29914-.50299.61621-1.00637.94981-1.50792.35871-.69962.75966-1.40408 1.19011-2.10736 1.4255-2.40159 1.9998-5.11414 2.00349-7.87446-.00003-8.8446-7.51101-16.01455-16.77624-16.01452z" fill="#dd4b3e"/><ellipse cx="226.74162" cy="239.00235" fill="#802d27" rx="5.828121" ry="5.563538"/><path d="m190.30097 237.28315c-4.67081 0-8.45737 3.85319-8.45737 8.6062s3.78656 8.60619 8.45737 8.60619c3.04284 0 4.8061-.9577 6.33656-2.51509 1.53046-1.5574 2.08773-3.91304 2.08773-6.28954 0-.36257-.0232-.72286-.0641-1.07952h-3.2985-.62839-4.33048v3.04271h4.84983c-.19704.75864-.53112 1.44997-1.0573 1.98541-.9423.95889-2.02809 1.54874-3.90157 1.54874-2.87584 0-5.20744-2.37246-5.20744-5.2989s2.3316-5.2989 5.20744-5.2989c1.39904 0 2.61848.40673 3.58428 1.29294l2.38125-2.38125c-.001-.001-.003-.003-.004-.004-1.58834-1.52432-3.61978-2.21486-5.95519-2.21486zm4.42919 5.65909c.001.002.003.005.004.007v-.003z" fill="#fff"/><path d="m215.18369 251.92877-7.97884 7.97884 28.47578 28.47579c.28694-.649.44907-1.3663.44907-2.1239v-31.16451c-.46838.67498-.93358 1.34879-1.38131 2.00453-.79249 1.27561-1.68289 2.63984-2.46549 3.99045-2.3472 4.06536-3.98227 8.03821-4.58525 13.79451-.16172.48415-.52641.79734-.92966.7984-.36255-.001-.69725-.25507-.87849-.66663-.00053-.004-.00053-.008-.001-.0124-.59257-5.82203-2.23604-9.81999-4.59972-13.91388-.78259-1.3506-1.673-2.71484-2.46548-3.99046-1.13694-1.66517-2.3275-3.39885-3.63751-5.16816-.00053-.00079-.002-.002-.002-.003z" fill="#c3c3c3"/><path d="m212.98331 248.49539-36.95279 36.95278v.81133c0 2.90212 2.33684 5.23843 5.23896 5.23843h1.01441l35.66604-35.66604c-.87695-1.27461-1.78037-2.57181-2.76417-3.90053-.31486-.48227-.64484-.96266-.98857-1.43919-.29915-.50299-.61622-1.00638-.94982-1.50792-.0833-.16255-.17635-.32585-.26406-.48886z" fill="#fddc4f"/><path d="m211.99784 261.08274-6.15157 6.15156 24.26364 24.26363h.78135c2.90212 0 5.23844-2.33631 5.23844-5.23843v-1.0449z" fill="#fff"/></g></svg>
</svg>
